<?xml version="1.0" standalone="no"?>
<!DOCTYPE svg PUBLIC "-//W3C//DTD SVG 1.1//EN" "http://www.w3.org/Graphics/SVG/1.1/DTD/svg11.dtd" >
<svg xmlns="http://www.w3.org/2000/svg" xmlns:xlink="http://www.w3.org/1999/xlink" version="1.1">
<metadata></metadata>
<defs>
<font id="neoubold" horiz-adv-x="1583" >
<font-face units-per-em="2048" ascent="1464" descent="-584" />
<missing-glyph horiz-adv-x="708" />
<glyph horiz-adv-x="0" />
<glyph horiz-adv-x="682" />
<glyph unicode=" "  horiz-adv-x="708" />
<glyph unicode="&#x09;" horiz-adv-x="708" />
<glyph unicode="&#xa0;" horiz-adv-x="708" />
<glyph unicode="!" horiz-adv-x="411" d="M0 94q0 38 28 66t68 28q38 0 66 -28t28 -66q0 -39 -27.5 -66.5t-66.5 -27.5q-40 0 -68 27t-28 67zM18 356v1108h154v-1108h-154z" />
<glyph unicode="&#x22;" horiz-adv-x="507" d="M0 1145v317h119v-317h-119zM158 1145v317h118v-317h-118z" />
<glyph unicode="#" horiz-adv-x="1232" d="M0 401v152h244l28 356h-243v154h254l32 401h152l-31 -401h221l31 401h154l-33 -401h233v-154h-243l-29 -356h244v-152h-254l-33 -401h-152l31 401h-221l-31 -401h-153l32 401h-233zM397 553h221l27 356h-221z" />
<glyph unicode="$" horiz-adv-x="1122" d="M0 406v6l2 59h152v-63v-2q0 -98 65 -170.5t160 -81.5v516q-94 11 -135 39q-96 54 -151.5 149t-55.5 205q0 151 98 264.5t244 136.5v76h153v-76q140 -22 237.5 -128.5t104.5 -250.5l5 -61h-154l-4 55q-4 82 -57 146t-132 84v-502l48 -2l6 -2q141 -20 233 -135t92 -262 q0 -161 -110.5 -279t-268.5 -127v-80h-153v80q-158 9 -268.5 127t-110.5 279zM190 1063q0 -87 53.5 -155.5t135.5 -88.5v490q-83 -22 -136 -90t-53 -156zM532 154q96 9 162 81.5t66 170.5q0 97 -66 168.5t-162 82.5v-503z" />
<glyph unicode="%" horiz-adv-x="1353" d="M0 1163q0 119 84 203t203 84q118 0 202 -84t84 -203q0 -120 -83.5 -203t-202.5 -83t-203 83t-84 203zM16 -4l969 1468h176l-968 -1468h-177zM154 1163q0 -56 39 -95.5t94 -39.5t94 39.5t39 95.5q0 55 -39 94t-94 39t-94 -39t-39 -94zM590 281q0 120 83.5 203t203.5 83 q119 0 202.5 -83t83.5 -203q0 -118 -83.5 -201.5t-202.5 -83.5q-120 0 -203.5 83t-83.5 202zM741 281q0 -55 40 -94.5t96 -39.5q55 0 94 39t39 95t-39 95.5t-94 39.5q-56 0 -96 -40t-40 -95z" />
<glyph unicode="&#x26;" horiz-adv-x="1357" d="M0 408q0 109 55 203t148 147q-62 58 -96.5 135t-34.5 162q0 167 117.5 285t283.5 118h47q154 0 263 -116.5t114 -274.5h-160q-5 93 -70 162t-155 69h-39q-100 0 -171 -71t-71 -172q0 -100 71 -172t171 -72h264v84h160v-84h147v-160h-147v-395q3 -38 32 -64t68 -26 q35 0 54 16l47 29l100 -125l-55 -37q-64 -43 -146 -43q-67 0 -124 31t-93 86q-116 -119 -282 -119h-97q-165 0 -283 119t-118 285zM160 408q0 -100 70.5 -171t170.5 -71h97q91 0 160 60.5t79 152.5v272h-336q-100 0 -170.5 -71t-70.5 -172z" />
<glyph unicode="'" horiz-adv-x="350" d="M0 1145v319h119v-319h-119z" />
<glyph unicode="(" horiz-adv-x="587" d="M0 735q0 208 43 375t119.5 260.5t171.5 93.5h57v-151h-57q-25 0 -55.5 -41t-59 -112.5t-48 -184.5t-19.5 -240q0 -126 19.5 -238.5t48 -183.5t59 -112t55.5 -41h57v-152h-57q-95 0 -171.5 93t-119.5 259.5t-43 374.5z" />
<glyph unicode=")" horiz-adv-x="622" d="M0 8v152h57q26 0 57 41t59.5 112t47.5 183.5t19 238.5q0 127 -19 240t-47.5 184.5t-59.5 112.5t-57 41h-57v151h57q96 0 172.5 -93.5t119 -260t42.5 -375.5t-42.5 -375t-119 -259t-172.5 -93h-57z" />
<glyph unicode="*" horiz-adv-x="544" d="M1.5 1209.5q3.5 16.5 16.5 25.5l68 39l-68 41q-13 10 -16 24q-4 19 4 29q10 21 33 21q9 0 20 -7l66 -39v76q0 16 11 27.5t28 11.5q15 0 27 -12t12 -27v-76l63 39q10 7 21 7q21 0 35 -21q8 -10 4 -29q-3 -14 -19 -24l-67 -41l67 -39q14 -9 18 -25t-3 -30q-13 -19 -35 -19 q-9 0 -21 4l-63 39v-74q0 -17 -12 -28.5t-27 -11.5q-17 0 -28 11.5t-11 28.5v74l-66 -39q-12 -4 -20 -4q-23 0 -33 19q-8 13 -4.5 29.5z" />
<glyph unicode="+" horiz-adv-x="1036" d="M0 629v166h322v321h165v-321h322v-166h-322v-320h-165v320h-322z" />
<glyph unicode="," horiz-adv-x="493" d="M0 -195l86 367h186l-127 -367h-145z" />
<glyph unicode="-" horiz-adv-x="823" d="M0 629v166h565v-166h-565z" />
<glyph unicode="." horiz-adv-x="401" d="M0 84q0 34 24.5 59t59.5 25q34 0 59 -25t25 -59q0 -35 -25 -59.5t-59 -24.5q-35 0 -59.5 24.5t-24.5 59.5z" />
<glyph unicode="/" horiz-adv-x="843" d="M0 2l508 1462h160l-508 -1462h-160z" />
<glyph unicode="0" horiz-adv-x="1335" d="M0 733q0 308 135 506q75 110 185 167.5t245 57.5t245 -57.5t185 -167.5q135 -198 135 -506q0 -312 -129 -504q-151 -227 -436 -227q-288 0 -436 227q-129 192 -129 504zM152 733q0 -265 102 -420q107 -157 311 -157q202 0 309 157q103 151 103 420q0 247 -96 404 q-108 176 -316 176q-210 0 -315 -176q-98 -156 -98 -404z" />
<glyph unicode="1" horiz-adv-x="714" d="M0 1071l389 393h121v-1462h-152v1212l-249 -249z" />
<glyph unicode="2" horiz-adv-x="1118" d="M0 944v57q0 192 132.5 327.5t318.5 135.5t317 -135.5t131 -327.5q0 -191 -133 -327l-502 -518h649v-154h-893v117l662 686q68 87 68 196q0 129 -88 220.5t-211 91.5q-124 0 -211.5 -91.5t-87.5 -220.5v-57h-152z" />
<glyph unicode="3" horiz-adv-x="1107" d="M0 430h152l6 -53q10 -95 81.5 -159t166.5 -64h96q103 0 176.5 74t73.5 178q0 103 -73.5 176t-176.5 73h-211v154h137q104 0 177 73.5t73 176.5q0 104 -73 177t-177 73h-39q-96 0 -163.5 -74t-67.5 -174v-60h-152v58q0 105 50 196.5t137 147.5t190 59h4h41q167 0 285 -118 t118 -285q0 -87 -35.5 -165t-99.5 -136q95 -53 151 -147t56 -205q0 -167 -117.5 -285.5t-283.5 -118.5h-96q-158 0 -271 104t-129 261z" />
<glyph unicode="4" horiz-adv-x="1085" d="M0 477v115l670 870h125v-823h86v-154h-86v-483h-152v475h-643zM221 639h422v541z" />
<glyph unicode="5" horiz-adv-x="1030" d="M0 172v178q44 -55 97 -95.5t97.5 -59t83 -29t60.5 -11.5l22 -1q129 0 221.5 91t92.5 220t-92.5 220t-221.5 91q-11 0 -30 -1t-70.5 -8t-95.5 -19t-91.5 -39t-72.5 -64v819h741v-151h-589v-434q102 51 208 51q192 0 328.5 -136.5t136.5 -328.5t-136.5 -328.5 t-328.5 -136.5q-98 0 -189 41t-157 115z" />
<glyph unicode="6" horiz-adv-x="1132" d="M0 449v550q0 192 136.5 328.5t328.5 136.5t327.5 -136.5t135.5 -328.5v-57h-152v57q0 129 -91 221.5t-220 92.5t-221 -92.5t-92 -221.5v-192q132 123 313 123q192 0 327.5 -136.5t135.5 -328.5t-135.5 -328.5t-327.5 -136.5q-175 0 -308.5 112t-150.5 279zM152 465 q0 -129 92 -220t221 -91t220 91t91 220t-91 220t-220 91t-221 -91t-92 -220z" />
<glyph unicode="7" horiz-adv-x="1185" d="M0 1313v151h981v-118l-649 -1344h-170l626 1311h-788z" />
<glyph unicode="8" horiz-adv-x="1175" d="M0 406q0 111 56 206t151 148q-121 108 -129 244l-6 57q0 105 50 196.5t137.5 147.5t191.5 59h2h67q160 0 275.5 -122t103.5 -281l-6 -57q-9 -140 -131 -244q96 -53 152.5 -147.5t56.5 -206.5q0 -166 -118 -285t-284 -119h-168q-165 0 -283 119t-118 285zM152 406 q0 -103 73 -176.5t176 -73.5h60h108q103 0 176.5 73.5t73.5 176.5q0 104 -73.5 177.5t-176.5 73.5h-168q-103 0 -176 -73.5t-73 -177.5zM225 1061q0 -104 73.5 -178t176.5 -74h21q103 0 176 74t73 178t-73 178t-176 74h-21q-103 0 -176.5 -74t-73.5 -178z" />
<glyph unicode="9" horiz-adv-x="1132" d="M0 465v57h152v-57q0 -129 92 -220t221 -91t220 91t91 220v192q-133 -120 -311 -120q-126 0 -233 61.5t-169.5 168t-62.5 232.5q0 192 136.5 328.5t328.5 136.5q175 0 307.5 -111.5t149.5 -277.5l6 -59v-551q0 -192 -135.5 -328.5t-327.5 -136.5t-328.5 136.5 t-136.5 328.5zM152 999q0 -129 92 -220t221 -91t220 91t91 220t-91 221.5t-220 92.5t-221 -92.5t-92 -221.5z" />
<glyph unicode=":" horiz-adv-x="395" d="M0 88q0 35 24.5 59.5t59.5 24.5q34 0 59 -24.5t25 -59.5q0 -34 -25 -59t-59 -25q-35 0 -59.5 25t-24.5 59zM0 737q0 35 24.5 59.5t59.5 24.5q34 0 59 -24.5t25 -59.5q0 -34 -25 -58t-59 -24q-35 0 -59.5 24t-24.5 58z" />
<glyph unicode=";" horiz-adv-x="477" d="M0 -197l86 367h186l-127 -367h-145zM80 735q0 35 25 59.5t59 24.5q35 0 59.5 -24.5t24.5 -59.5q0 -34 -24.5 -59t-59.5 -25q-34 0 -59 25t-25 59z" />
<glyph unicode="=" horiz-adv-x="1003" d="M0 481v166h793v-166h-793zM0 778v166h793v-166h-793z" />
<glyph unicode="?" horiz-adv-x="1087" d="M0 940v59q0 192 133 328.5t320 136.5q186 0 319 -136.5t133 -328.5q0 -197 -135 -329l-145 -150q-1 -1 -3.5 -3t-3.5 -3q-57 -43 -73 -168h-156q17 178 125 281l172 174q68 90 68 198q0 129 -88.5 220.5t-212.5 91.5t-212.5 -91.5t-88.5 -220.5v-59h-152zM373 90 q0 40 27 68t67 28t68 -28t28 -68t-28 -67t-68 -27t-67 27t-27 67z" />
<glyph unicode="@" horiz-adv-x="2289" d="M0 440q0 208 83.5 397.5t224 327t334.5 218.5t407 81t407 -81t334.5 -218.5t223.5 -327t83 -397.5q0 -109 -16 -174q-9 -36 -21 -65l-2 -4q-44 -104 -140 -166t-210 -62q-101 0 -188 48t-138 130q-68 -87 -167 -135.5t-211 -48.5q-130 0 -240.5 63.5t-175 173.5 t-64.5 240t64.5 240t175 174t240.5 64q187 0 321 -125v125h156v-424l2 -152q0 -90 66 -153.5t159 -63.5q65 0 121.5 34t85.5 91q18 49 21 74t3 88v28q0 176 -70.5 337t-189.5 277t-284 184.5t-346 68.5t-346 -68.5t-284.5 -184.5t-190 -277t-70.5 -337t70.5 -336t190 -275.5 t284.5 -184t346 -68.5q293 0 526 168l14 10h254l-135 -106q-140 -111 -310 -170.5t-349 -59.5q-213 0 -407 81t-334.5 218t-224 326.5t-83.5 396.5zM682 440q0 -133 94 -227t228 -94t227.5 93.5t93.5 227.5t-94 228t-227 94q-134 0 -228 -94t-94 -228z" />
<glyph unicode="A" horiz-adv-x="1566" d="M0 0l643 1464h117l643 -1464h-166l-199 453h-673l-199 -453h-166zM432 604h539l-269 613z" />
<glyph unicode="B" horiz-adv-x="1185" d="M0 0l4 59v1405h541q167 0 285 -118.5t118 -284.5q0 -88 -35.5 -166.5t-99.5 -136.5q95 -53 152 -148t57 -207q0 -167 -119 -285t-285 -118h-618zM156 154h462q103 0 176.5 73t73.5 176q0 104 -73.5 178t-176.5 74h-462v-501zM156 809h389q104 0 178 74t74 178 q0 103 -74 176.5t-178 73.5h-389v-502z" />
<glyph unicode="C" horiz-adv-x="1611" d="M0 731q0 148 58.5 284t156.5 234t234 156.5t284 58.5q256 0 456 -159.5t259 -407.5h-158q-56 184 -210 300t-347 116q-157 0 -291 -78.5t-212 -212.5t-78 -291q0 -119 46.5 -227t124.5 -186t185 -124.5t225 -46.5q188 0 340 111t211 289h158q-62 -242 -259.5 -395.5 t-449.5 -153.5q-198 0 -367 98t-267.5 267t-98.5 368z" />
<glyph unicode="D" horiz-adv-x="1361" d="M0 0v1464h467q148 0 283.5 -58t233.5 -156t156 -233.5t58 -283.5q0 -200 -98 -368.5t-266.5 -266.5t-366.5 -98h-467zM154 152h313q157 0 290.5 77.5t211.5 211.5t78 292q0 157 -78 290.5t-211.5 211.5t-290.5 78h-313v-1161z" />
<glyph unicode="E" horiz-adv-x="1128" d="M0 0v1464h965v-153h-811v-502h591v-154h-591v-501h811v-154h-965z" />
<glyph unicode="F" horiz-adv-x="1165" d="M0 0v1464h1001v-153h-847v-502h628v-154h-628v-655h-154z" />
<glyph unicode="G" horiz-adv-x="1624" d="M0 731q0 198 98 367t267 267.5t368 98.5q253 0 452 -157t259 -402h-158q-57 181 -210 294.5t-343 113.5q-158 0 -292 -78.5t-211.5 -212.5t-77.5 -291q0 -158 77.5 -292t211.5 -211.5t292 -77.5q179 0 326 99.5t213 264.5h-559v154h747l-8 -80q-19 -169 -124.5 -305 t-262.5 -209.5t-332 -73.5q-200 0 -368.5 97.5t-266.5 265.5t-98 368z" />
<glyph unicode="H" horiz-adv-x="1341" d="M0 0v1464h154v-655h870v655h154v-1464h-154v655h-870v-655h-154z" />
<glyph unicode="I" horiz-adv-x="817" d="M0 0v152h250v1159h-250v153h653v-153h-250v-1159h250v-152h-653z" />
<glyph unicode="J" horiz-adv-x="956" d="M0 -2v149h57q118 0 226 46.5t186 124.5t124 185.5t46 225.5v735h154v-735q0 -148 -58.5 -283.5t-157 -233.5t-234.5 -156t-286 -58h-57z" />
<glyph unicode="K" horiz-adv-x="1292" d="M0 0v1464h154v-624l624 624h215l-663 -665l798 -799h-215l-692 692l-67 -69v-623h-154z" />
<glyph unicode="L" horiz-adv-x="1132" d="M0 0v1464h154v-1312h815v-152h-969z" />
<glyph unicode="M" horiz-adv-x="1572" d="M0 0v1464h131l571 -1222l574 1222h133v-1464h-154v1057l-497 -1057h-113l-491 1055v-1055h-154z" />
<glyph unicode="N" horiz-adv-x="1357" d="M0 0v1464h123l917 -1173v1173h154v-1464h-123l-917 1174v-1174h-154z" />
<glyph unicode="O" horiz-adv-x="1615" d="M0 735q0 197 97.5 364.5t265 265t364.5 97.5q196 0 363 -97.5t264.5 -265t97.5 -364.5t-97.5 -364.5t-264.5 -265t-363 -97.5q-197 0 -364.5 97.5t-265 265t-97.5 364.5zM152 735q0 -117 45.5 -223.5t122.5 -184t183.5 -123.5t223.5 -46q156 0 288.5 77.5t210 210.5 t77.5 289t-77.5 288.5t-210 210t-288.5 77.5t-288.5 -77.5t-209.5 -210t-77 -288.5z" />
<glyph unicode="P" horiz-adv-x="1167" d="M0 0v1464h600q167 0 285.5 -118.5t118.5 -284.5q0 -167 -118.5 -286.5t-285.5 -119.5h-446v-655h-154zM154 809h446q104 0 177 74t73 178q0 103 -73 176.5t-177 73.5h-446v-502z" />
<glyph unicode="Q" horiz-adv-x="1624" d="M0 731q0 148 58 283.5t156 233.5t233.5 156t283.5 58q197 0 365 -98t266 -266.5t98 -366.5q0 -257 -162 -461l162 -161l-108 -109l-162 164q-200 -164 -459 -164q-148 0 -283.5 58t-233.5 156t-156 233.5t-58 283.5zM152 731q0 -117 46 -224.5t123.5 -185t185 -123.5 t224.5 -46q195 0 350 118l-225 226l109 108l225 -225q119 153 119 352q0 157 -77.5 291t-210.5 212.5t-290 78.5t-290.5 -78.5t-211 -212.5t-77.5 -291z" />
<glyph unicode="R" horiz-adv-x="1241" d="M0 0v1464h580q166 0 283.5 -118.5t117.5 -284.5q0 -167 -117.5 -286.5t-283.5 -119.5h-242l739 -655h-227l-696 621v-621h-154zM154 809h426q103 0 176 74t73 178q0 103 -73 176.5t-176 73.5h-426v-502z" />
<glyph unicode="S" horiz-adv-x="1234" d="M0 403v9l2 57h160l-2 -66v-6q0 -97 90 -169q93 -74 223 -74h125q129 0 221 73t92 176q0 104 -92 178t-221 74h-4h-21h-32q-187 9 -258 52q-240 139 -240 354q0 109 63.5 201.5t172.5 147t237 54.5h37q189 0 326.5 -111t146.5 -272l4 -61h-160l-4 55q-7 100 -97.5 168 t-215.5 68h-37q-129 0 -220 -73.5t-91 -176.5q0 -101 86 -175t209 -77h10h4h61v-2q104 -3 107 -6h6q165 -20 274 -135t109 -263q0 -167 -139 -285t-334 -118h-125q-195 0 -334 118t-139 285z" />
<glyph unicode="T" horiz-adv-x="1257" d="M0 1311v153h1094v-153h-471v-1311h-152v1311h-471z" />
<glyph unicode="U" horiz-adv-x="1316" d="M0 518v57v889h154v-895q0 -113 57.5 -209.5t155 -152t211.5 -55.5q173 0 298 122t125 293v8v889h152v-889q0 -117 -45.5 -223.5t-122.5 -183.5t-183.5 -122.5t-223.5 -45.5q-223 0 -388 149.5t-188 368.5h-2z" />
<glyph unicode="V" horiz-adv-x="1466" d="M0 1464h162l493 -1204l486 1204h162l-590 -1464h-115z" />
<glyph unicode="W" horiz-adv-x="1888" d="M0 1464h158l317 -1128l326 1128h123l338 -1128l307 1128h155l-397 -1464h-123l-340 1135l-327 -1135h-123z" />
<glyph unicode="X" horiz-adv-x="1427" d="M0 0l537 731l-537 733h190l443 -604l440 604h191l-537 -733l537 -731h-191l-440 602l-443 -602h-190z" />
<glyph unicode="Y" horiz-adv-x="1427" d="M0 1464h190l443 -604l440 604h191l-555 -757v-11v-28v-668h-154v707z" />
<glyph unicode="Z" horiz-adv-x="1247" d="M0 -6v119l866 1198h-866v153h1083v-112l-868 -1200h868v-152z" />
<glyph unicode="\" horiz-adv-x="851" d="M0 1464h160l508 -1462h-160z" />
<glyph unicode="_" horiz-adv-x="950" d="M0 0h950v-164h-950v164z" />
<glyph unicode="`" horiz-adv-x="538" d="M0 1464h141l172 -174h-112z" />
<glyph unicode="a" horiz-adv-x="1566" d="M0 0l643 1464h117l643 -1464h-166l-199 453h-673l-199 -453h-166zM432 604h539l-269 613z" />
<glyph unicode="b" horiz-adv-x="1185" d="M0 0l4 59v1405h541q167 0 285 -118.5t118 -284.5q0 -88 -35.5 -166.5t-99.5 -136.5q95 -53 152 -148t57 -207q0 -167 -119 -285t-285 -118h-618zM156 154h462q103 0 176.5 73t73.5 176q0 104 -73.5 178t-176.5 74h-462v-501zM156 809h389q104 0 178 74t74 178 q0 103 -74 176.5t-178 73.5h-389v-502z" />
<glyph unicode="c" horiz-adv-x="1611" d="M0 731q0 148 58.5 284t156.5 234t234 156.5t284 58.5q256 0 456 -159.5t259 -407.5h-158q-56 184 -210 300t-347 116q-158 0 -292 -78.5t-211.5 -212.5t-77.5 -291q0 -119 46.5 -227t124.5 -186t185 -124.5t225 -46.5q188 0 340 111t211 289h158q-62 -242 -259.5 -395.5 t-449.5 -153.5q-198 0 -367 98t-267.5 267t-98.5 368z" />
<glyph unicode="d" horiz-adv-x="1361" d="M0 0v1464h467q148 0 283.5 -58t233.5 -156t156 -233.5t58 -283.5q0 -200 -98 -368.5t-266.5 -266.5t-366.5 -98h-467zM154 152h313q157 0 290.5 77.5t211.5 211.5t78 292q0 157 -78 290.5t-211.5 211.5t-290.5 78h-313v-1161z" />
<glyph unicode="e" horiz-adv-x="1128" d="M0 0v1464h965v-153h-811v-502h591v-154h-591v-501h811v-154h-965z" />
<glyph unicode="f" horiz-adv-x="1118" d="M0 0v1464h1001v-153h-847v-502h628v-154h-628v-655h-154z" />
<glyph unicode="g" horiz-adv-x="1624" d="M0 731q0 198 98 367t267 267.5t368 98.5q253 0 452 -157t259 -402h-158q-57 181 -210 294.5t-343 113.5q-158 0 -292 -78.5t-211.5 -212.5t-77.5 -291q0 -158 77.5 -292t211.5 -211.5t292 -77.5q179 0 326 99.5t213 264.5h-559v154h747l-8 -80q-19 -169 -124.5 -305 t-262.5 -209.5t-332 -73.5q-200 0 -368.5 97.5t-266.5 265.5t-98 368z" />
<glyph unicode="h" horiz-adv-x="1341" d="M0 0v1464h154v-655h870v655h154v-1464h-154v655h-870v-655h-154z" />
<glyph unicode="i" horiz-adv-x="817" d="M0 0v152h250v1159h-250v153h653v-153h-250v-1159h250v-152h-653z" />
<glyph unicode="j" horiz-adv-x="956" d="M0 -2v149h57q118 0 226 46.5t186 124.5t124 185.5t46 225.5v735h154v-735q0 -148 -58.5 -283.5t-157 -233.5t-234.5 -156t-286 -58h-57z" />
<glyph unicode="k" horiz-adv-x="1292" d="M0 0v1464h154v-624l624 624h215l-663 -665l798 -799h-215l-692 692l-67 -69v-623h-154z" />
<glyph unicode="l" horiz-adv-x="1132" d="M0 0v1464h154v-1312h815v-152h-969z" />
<glyph unicode="m" horiz-adv-x="1572" d="M0 0v1464h131l571 -1222l574 1222h133v-1464h-154v1057l-497 -1057h-113l-491 1055v-1055h-154z" />
<glyph unicode="n" horiz-adv-x="1357" d="M0 0v1464h123l917 -1173v1173h154v-1464h-123l-917 1174v-1174h-154z" />
<glyph unicode="o" horiz-adv-x="1615" d="M0 735q0 197 97.5 364.5t265 265t364.5 97.5q196 0 363 -97.5t264.5 -265t97.5 -364.5t-97.5 -364.5t-264.5 -265t-363 -97.5q-197 0 -364.5 97.5t-265 265t-97.5 364.5zM152 735q0 -117 45.5 -223.5t122.5 -184t183.5 -123.5t223.5 -46q156 0 288.5 77.5t210 210.5 t77.5 289t-77.5 288.5t-210 210t-288.5 77.5t-288.5 -77.5t-209.5 -210t-77 -288.5z" />
<glyph unicode="p" horiz-adv-x="1167" d="M0 0v1464h600q167 0 285.5 -118.5t118.5 -284.5q0 -167 -118.5 -286.5t-285.5 -119.5h-446v-655h-154zM154 809h446q104 0 177 74t73 178q0 103 -73 176.5t-177 73.5h-446v-502z" />
<glyph unicode="q" horiz-adv-x="1624" d="M0 731q0 148 58 283.5t156 233.5t233.5 156t283.5 58q197 0 365 -98t266 -266.5t98 -366.5q0 -257 -162 -461l162 -161l-108 -109l-162 164q-200 -164 -459 -164q-148 0 -283.5 58t-233.5 156t-156 233.5t-58 283.5zM152 731q0 -117 46 -224.5t123.5 -185t185 -123.5 t224.5 -46q195 0 350 118l-225 226l109 108l225 -225q119 153 119 352q0 157 -77.5 291t-210.5 212.5t-290 78.5t-290.5 -78.5t-211 -212.5t-77.5 -291z" />
<glyph unicode="r" horiz-adv-x="1241" d="M0 0v1464h580q166 0 283.5 -118.5t117.5 -284.5q0 -167 -117.5 -286.5t-283.5 -119.5h-242l739 -655h-227l-696 621v-621h-154zM154 809h426q103 0 176 74t73 178q0 103 -73 176.5t-176 73.5h-426v-502z" />
<glyph unicode="s" horiz-adv-x="1234" d="M0 403v9l2 57h160l-2 -66v-6q0 -97 90 -169q93 -74 223 -74h125q129 0 221 73t92 176q0 104 -92 178t-221 74h-4h-21h-32q-187 9 -258 52q-240 139 -240 354q0 109 63.5 201.5t172.5 147t237 54.5h37q189 0 326.5 -111t146.5 -272l4 -61h-160l-4 55q-7 100 -97.5 168 t-215.5 68h-37q-129 0 -220 -73.5t-91 -176.5q0 -101 86 -175t209 -77h10h4h61v-2q104 -3 107 -6h6q165 -20 274 -135t109 -263q0 -167 -139 -285t-334 -118h-125q-195 0 -334 118t-139 285z" />
<glyph unicode="t" horiz-adv-x="1257" d="M0 1311v153h1094v-153h-471v-1311h-152v1311h-471z" />
<glyph unicode="u" horiz-adv-x="1316" d="M0 518v57v889h154v-895q0 -113 57.5 -209.5t155 -152t211.5 -55.5q173 0 298 122t125 293v8v889h152v-889q0 -117 -45.5 -223.5t-122.5 -183.5t-183.5 -122.5t-223.5 -45.5q-223 0 -388 149.5t-188 368.5h-2z" />
<glyph unicode="v" horiz-adv-x="1466" d="M0 1464h162l493 -1204l486 1204h162l-590 -1464h-115z" />
<glyph unicode="w" horiz-adv-x="1888" d="M0 1464h158l317 -1128l326 1128h123l338 -1128l307 1128h155l-397 -1464h-123l-340 1135l-327 -1135h-123z" />
<glyph unicode="x" horiz-adv-x="1427" d="M0 0l537 731l-537 733h190l443 -604l440 604h191l-537 -733l537 -731h-191l-440 602l-443 -602h-190z" />
<glyph unicode="y" horiz-adv-x="1427" d="M0 1464h190l443 -604l440 604h191l-555 -757v-11v-28v-668h-154v707z" />
<glyph unicode="z" horiz-adv-x="1247" d="M0 -6v119l866 1198h-866v153h1083v-112l-868 -1200h868v-152z" />
<glyph unicode="~" horiz-adv-x="606" d="M0 1364l8 14q38 68 107 68q32 0 88 -25q51 -24 67 -24q20 0 41 33l25 34l49 -75l-12 -15q-43 -67 -103 -67q-34 0 -84 26q-48 25 -75 25q-23 0 -39 -29l-23 -43z" />
<glyph unicode="&#xa1;" horiz-adv-x="411" d="M0 1368q0 38 28 66t68 28q38 0 66 -28t28 -66q0 -40 -28 -68t-66 -28q-40 0 -68 28t-28 68zM18 -2v1106h154v-1106h-154z" />
<glyph unicode="&#xa8;" horiz-adv-x="698" d="M0 1378q0 34 24.5 59t59.5 25q34 0 59 -25t25 -59q0 -35 -25 -59.5t-59 -24.5q-35 0 -59.5 24.5t-24.5 59.5zM301 1378q0 34 24.5 59t59.5 25q34 0 59 -25t25 -59q0 -35 -25 -59.5t-59 -24.5q-35 0 -59.5 24.5t-24.5 59.5z" />
<glyph unicode="&#xad;" horiz-adv-x="823" d="M0 629v166h565v-166h-565z" />
<glyph unicode="&#xb4;" horiz-adv-x="534" d="M0 1288l176 176h143l-204 -176h-115z" />
<glyph unicode="&#xbf;" horiz-adv-x="1062" d="M0 461q0 194 133 330l148 147l6 6q58 50 73 168h154q-17 -178 -125 -281l-170 -174q-67 -86 -67 -196q0 -130 88 -222t213 -92t213 92t88 222v57h151v-57q0 -193 -133 -329t-319 -136q-188 0 -320.5 136t-132.5 329zM342 1368q0 40 28 68t66 28q40 0 68 -28t28 -68 q0 -38 -28 -66t-68 -28q-38 0 -66 28t-28 66z" />
<glyph unicode="&#xc0;" d="M0 0l643 1464h117l643 -1464h-166l-199 453h-673l-199 -453h-166zM432 604h539l-269 613zM444 1741h142l174 -174h-115z" />
<glyph unicode="&#xc1;" d="M0 0l643 1464h117l643 -1464h-166l-199 453h-673l-199 -453h-166zM432 604h539l-269 613zM643 1567l176 176h144l-203 -176h-117z" />
<glyph unicode="&#xc2;" d="M0 0l643 1464h117l643 -1464h-166l-199 453h-673l-199 -453h-166zM432 604h539l-269 613zM489 1567l177 174h67l174 -174h-114l-95 82l-94 -82h-115z" />
<glyph unicode="&#xc3;" d="M0 0l643 1464h117l643 -1464h-166l-199 453h-673l-199 -453h-166zM432 604h539l-269 613zM524 1624l8 14q41 68 107 68q30 0 90 -25q49 -24 66 -24q23 0 41 33l24 34l49 -75l-10 -17q-44 -65 -104 -65q-34 0 -84 26q-44 23 -76 23q-22 0 -37 -29l-25 -41z" />
<glyph unicode="&#xc4;" d="M0 0l643 1464h117l643 -1464h-166l-199 453h-673l-199 -453h-166zM432 604h539l-269 613zM471 1651q0 34 24.5 59t59.5 25q34 0 59 -25t25 -59q0 -35 -25 -59.5t-59 -24.5q-35 0 -59.5 24.5t-24.5 59.5zM772 1651q0 34 25 59t59 25t59 -25t25 -59q0 -35 -25 -59.5 t-59 -24.5t-59 24.5t-25 59.5z" />
<glyph unicode="&#xc7;" horiz-adv-x="1601" d="M0 729q0 200 98.5 369t267.5 267.5t367 98.5q256 0 456 -159.5t259 -407.5h-158q-56 184 -210 300t-347 116q-118 0 -225 -46.5t-185 -124.5t-124.5 -186t-46.5 -227q0 -157 78 -291t212 -212.5t291 -78.5q188 0 340 111t211 289h158q-39 -153 -136 -274.5t-235 -193 t-295 -79.5v-31q8 2 31 2q71 0 122.5 -51t51.5 -123t-51.5 -123t-122.5 -51q-61 0 -108.5 37t-61.5 96h131q14 -14 39 -14q23 0 39 16t16 39t-16 39.5t-39 16.5q-24 0 -43 -19v-2h-117v29v139q-180 21 -328.5 123t-233.5 262t-85 344z" />
<glyph unicode="&#xc8;" horiz-adv-x="1081" d="M0 0v1464h965v-153h-811v-502h591v-154h-591v-501h811v-154h-965zM244 1741h139l174 -174h-115z" />
<glyph unicode="&#xc9;" horiz-adv-x="1081" d="M0 0v1464h965v-153h-811v-502h591v-154h-591v-501h811v-154h-965zM387 1567l176 176h142l-203 -176h-115z" />
<glyph unicode="&#xca;" horiz-adv-x="1081" d="M0 0v1464h965v-153h-811v-502h591v-154h-591v-501h811v-154h-965zM283 1567l176 174h67l174 -174h-114l-94 82l-95 -82h-114z" />
<glyph unicode="&#xcb;" horiz-adv-x="1081" d="M0 0v1464h965v-153h-811v-502h591v-154h-591v-501h811v-154h-965zM266 1651q0 34 24.5 59t59.5 25q34 0 59 -25t25 -59q0 -35 -25 -59.5t-59 -24.5q-35 0 -59.5 24.5t-24.5 59.5zM567 1651q0 34 25 59t59 25t59 -25t25 -59q0 -35 -25 -59.5t-59 -24.5t-59 24.5t-25 59.5z " />
<glyph unicode="&#xcc;" horiz-adv-x="841" d="M0 0v152h250v1159h-250v153h653v-153h-250v-1159h250v-152h-653zM72 1741h139l174 -174h-115z" />
<glyph unicode="&#xcd;" horiz-adv-x="841" d="M0 0v152h250v1159h-250v153h653v-153h-250v-1159h250v-152h-653zM266 1567l176 176h142l-203 -176h-115z" />
<glyph unicode="&#xce;" horiz-adv-x="841" d="M0 0v152h250v1159h-250v153h653v-153h-250v-1159h250v-152h-653zM117 1567l176 174h67l175 -174h-115l-94 82l-95 -82h-114z" />
<glyph unicode="&#xcf;" horiz-adv-x="841" d="M0 0v152h250v1159h-250v153h653v-153h-250v-1159h250v-152h-653zM106 1651q0 34 24.5 59t59.5 25q34 0 59 -25t25 -59q0 -35 -25 -59.5t-59 -24.5q-35 0 -59.5 24.5t-24.5 59.5zM408 1651q0 34 25 59t59 25t58.5 -25t24.5 -59q0 -35 -24.5 -59.5t-58.5 -24.5t-59 24.5 t-25 59.5z" />
<glyph unicode="&#xd1;" horiz-adv-x="1419" d="M0 0v1464h123l917 -1173v1173h154v-1464h-123l-917 1174v-1174h-154zM379 1624l8 14q41 68 107 68q30 0 90 -25q49 -24 65 -24q23 0 41 33l25 34l49 -75l-10 -17q-44 -65 -105 -65q-34 0 -84 26q-44 23 -76 23q-21 0 -36 -29l-25 -41z" />
<glyph unicode="&#xd2;" horiz-adv-x="1650" d="M0 735q0 197 97.5 364.5t265 265t364.5 97.5q196 0 363 -97.5t264.5 -265t97.5 -364.5t-97.5 -364.5t-264.5 -265t-363 -97.5q-197 0 -364.5 97.5t-265 265t-97.5 364.5zM152 735q0 -117 45.5 -223.5t122.5 -184t183.5 -123.5t223.5 -46q156 0 288.5 77.5t210 210.5 t77.5 289t-77.5 288.5t-210 210t-288.5 77.5t-288.5 -77.5t-209.5 -210t-77 -288.5zM471 1741h139l174 -174h-114z" />
<glyph unicode="&#xd3;" horiz-adv-x="1650" d="M0 735q0 197 97.5 364.5t265 265t364.5 97.5q196 0 363 -97.5t264.5 -265t97.5 -364.5t-97.5 -364.5t-264.5 -265t-363 -97.5q-197 0 -364.5 97.5t-265 265t-97.5 364.5zM152 735q0 -117 45.5 -223.5t122.5 -184t183.5 -123.5t223.5 -46q156 0 288.5 77.5t210 210.5 t77.5 289t-77.5 288.5t-210 210t-288.5 77.5t-288.5 -77.5t-209.5 -210t-77 -288.5zM659 1567l177 176h141l-203 -176h-115z" />
<glyph unicode="&#xd4;" horiz-adv-x="1650" d="M0 735q0 197 97.5 364.5t265 265t364.5 97.5q196 0 363 -97.5t264.5 -265t97.5 -364.5t-97.5 -364.5t-264.5 -265t-363 -97.5q-197 0 -364.5 97.5t-265 265t-97.5 364.5zM152 735q0 -117 45.5 -223.5t122.5 -184t183.5 -123.5t223.5 -46q156 0 288.5 77.5t210 210.5 t77.5 289t-77.5 288.5t-210 210t-288.5 77.5t-288.5 -77.5t-209.5 -210t-77 -288.5zM510 1567l176 174h68l174 -174h-115l-94 82l-94 -82h-115z" />
<glyph unicode="&#xd5;" horiz-adv-x="1650" d="M0 735q0 197 97.5 364.5t265 265t364.5 97.5q196 0 363 -97.5t264.5 -265t97.5 -364.5t-97.5 -364.5t-264.5 -265t-363 -97.5q-197 0 -364.5 97.5t-265 265t-97.5 364.5zM152 735q0 -117 45.5 -223.5t122.5 -184t183.5 -123.5t223.5 -46q156 0 288.5 77.5t210 210.5 t77.5 289t-77.5 288.5t-210 210t-288.5 77.5t-288.5 -77.5t-209.5 -210t-77 -288.5zM543 1624l8 14q41 68 106 68q31 0 91 -25q49 -24 65 -24q23 0 41 33l25 34l49 -75l-10 -17q-44 -65 -105 -65q-34 0 -84 26q-44 23 -76 23q-22 0 -37 -29l-24 -41z" />
<glyph unicode="&#xd6;" horiz-adv-x="1650" d="M0 735q0 197 97.5 364.5t265 265t364.5 97.5q196 0 363 -97.5t264.5 -265t97.5 -364.5t-97.5 -364.5t-264.5 -265t-363 -97.5q-197 0 -364.5 97.5t-265 265t-97.5 364.5zM152 735q0 -117 45.5 -223.5t122.5 -184t183.5 -123.5t223.5 -46q156 0 288.5 77.5t210 210.5 t77.5 289t-77.5 288.5t-210 210t-288.5 77.5t-288.5 -77.5t-209.5 -210t-77 -288.5zM492 1651q0 34 24 59t59 25q34 0 59 -25t25 -59q0 -35 -25 -59.5t-59 -24.5q-35 0 -59 24.5t-24 59.5zM793 1651q0 34 25 59t59 25t59 -25t25 -59q0 -35 -25 -59.5t-59 -24.5t-59 24.5 t-25 59.5z" />
<glyph unicode="&#xd9;" horiz-adv-x="1382" d="M0 518v57v889h154v-895q0 -113 57.5 -209.5t155 -152t211.5 -55.5q173 0 298 122t125 293v8v889h152v-889q0 -117 -45.5 -223.5t-122.5 -183.5t-183.5 -122.5t-223.5 -45.5q-223 0 -388 149.5t-188 368.5h-2zM346 1741h139l174 -174h-114z" />
<glyph unicode="&#xda;" horiz-adv-x="1382" d="M0 518v57v889h154v-895q0 -113 57.5 -209.5t155 -152t211.5 -55.5q173 0 298 122t125 293v8v889h152v-889q0 -117 -45.5 -223.5t-122.5 -183.5t-183.5 -122.5t-223.5 -45.5q-223 0 -388 149.5t-188 368.5h-2zM502 1567l176 176h141l-203 -176h-114z" />
<glyph unicode="&#xdb;" horiz-adv-x="1382" d="M0 518v57v889h154v-895q0 -113 57.5 -209.5t155 -152t211.5 -55.5q173 0 298 122t125 293v8v889h152v-889q0 -117 -45.5 -223.5t-122.5 -183.5t-183.5 -122.5t-223.5 -45.5q-223 0 -388 149.5t-188 368.5h-2zM369 1567l176 174h67l174 -174h-114l-94 82l-95 -82h-114z " />
<glyph unicode="&#xdc;" horiz-adv-x="1382" d="M0 518v57v889h154v-895q0 -113 57.5 -209.5t155 -152t211.5 -55.5q173 0 298 122t125 293v8v889h152v-889q0 -117 -45.5 -223.5t-122.5 -183.5t-183.5 -122.5t-223.5 -45.5q-223 0 -388 149.5t-188 368.5h-2zM334 1651q0 34 24.5 59t59.5 25q34 0 59 -25t25 -59 q0 -35 -25 -59.5t-59 -24.5q-35 0 -59.5 24.5t-24.5 59.5zM635 1651q0 34 25 59t59 25t59 -25t25 -59q0 -35 -25 -59.5t-59 -24.5t-59 24.5t-25 59.5z" />
<glyph unicode="&#xe0;" d="M0 0l643 1464h117l643 -1464h-166l-199 453h-673l-199 -453h-166zM432 604h539l-269 613zM444 1741h142l174 -174h-115z" />
<glyph unicode="&#xe1;" d="M0 0l643 1464h117l643 -1464h-166l-199 453h-673l-199 -453h-166zM432 604h539l-269 613zM643 1567l176 176h144l-203 -176h-117z" />
<glyph unicode="&#xe2;" d="M0 0l643 1464h117l643 -1464h-166l-199 453h-673l-199 -453h-166zM432 604h539l-269 613zM489 1567l177 174h67l174 -174h-114l-95 82l-94 -82h-115z" />
<glyph unicode="&#xe3;" d="M0 0l643 1464h117l643 -1464h-166l-199 453h-673l-199 -453h-166zM432 604h539l-269 613zM524 1624l8 14q41 68 107 68q30 0 90 -25q49 -24 66 -24q23 0 41 33l24 34l49 -75l-10 -17q-44 -65 -104 -65q-34 0 -84 26q-44 23 -76 23q-22 0 -37 -29l-25 -41z" />
<glyph unicode="&#xe4;" d="M0 0l643 1464h117l643 -1464h-166l-199 453h-673l-199 -453h-166zM432 604h539l-269 613zM471 1651q0 34 24.5 59t59.5 25q34 0 59 -25t25 -59q0 -35 -25 -59.5t-59 -24.5q-35 0 -59.5 24.5t-24.5 59.5zM772 1651q0 34 25 59t59 25t59 -25t25 -59q0 -35 -25 -59.5 t-59 -24.5t-59 24.5t-25 59.5z" />
<glyph unicode="&#xe5;" horiz-adv-x="708" />
<glyph unicode="&#xe6;" horiz-adv-x="708" />
<glyph unicode="&#xe7;" horiz-adv-x="1601" d="M0 729q0 200 98.5 369t267.5 267.5t367 98.5q256 0 456 -159.5t259 -407.5h-158q-56 184 -210 300t-347 116q-118 0 -225 -46.5t-185 -124.5t-124.5 -186t-46.5 -227q0 -157 78 -291t212 -212.5t291 -78.5q188 0 340 111t211 289h158q-39 -153 -136 -274.5t-235 -193 t-295 -79.5v-31q8 2 31 2q71 0 122.5 -51t51.5 -123t-51.5 -123t-122.5 -51q-61 0 -108.5 37t-61.5 96h131q14 -14 39 -14q23 0 39 16t16 39t-16 39.5t-39 16.5q-24 0 -43 -19v-2h-117v29v139q-180 21 -328.5 123t-233.5 262t-85 344z" />
<glyph unicode="&#xe8;" horiz-adv-x="1081" d="M0 0v1464h965v-153h-811v-502h591v-154h-591v-501h811v-154h-965zM244 1741h139l174 -174h-115z" />
<glyph unicode="&#xe9;" horiz-adv-x="1081" d="M0 0v1464h965v-153h-811v-502h591v-154h-591v-501h811v-154h-965zM387 1567l176 176h142l-203 -176h-115z" />
<glyph unicode="&#xea;" horiz-adv-x="1081" d="M0 0v1464h965v-153h-811v-502h591v-154h-591v-501h811v-154h-965zM283 1567l176 174h67l174 -174h-114l-94 82l-95 -82h-114z" />
<glyph unicode="&#xeb;" horiz-adv-x="1081" d="M0 0v1464h965v-153h-811v-502h591v-154h-591v-501h811v-154h-965zM266 1651q0 34 24.5 59t59.5 25q34 0 59 -25t25 -59q0 -35 -25 -59.5t-59 -24.5q-35 0 -59.5 24.5t-24.5 59.5zM567 1651q0 34 25 59t59 25t59 -25t25 -59q0 -35 -25 -59.5t-59 -24.5t-59 24.5t-25 59.5z " />
<glyph unicode="&#xec;" horiz-adv-x="841" d="M0 0v152h250v1159h-250v153h653v-153h-250v-1159h250v-152h-653zM72 1741h139l174 -174h-115z" />
<glyph unicode="&#xed;" horiz-adv-x="841" d="M0 0v152h250v1159h-250v153h653v-153h-250v-1159h250v-152h-653zM266 1567l176 176h142l-203 -176h-115z" />
<glyph unicode="&#xee;" horiz-adv-x="841" d="M0 0v152h250v1159h-250v153h653v-153h-250v-1159h250v-152h-653zM117 1567l176 174h67l175 -174h-115l-94 82l-95 -82h-114z" />
<glyph unicode="&#xef;" horiz-adv-x="841" d="M0 0v152h250v1159h-250v153h653v-153h-250v-1159h250v-152h-653zM106 1651q0 34 24.5 59t59.5 25q34 0 59 -25t25 -59q0 -35 -25 -59.5t-59 -24.5q-35 0 -59.5 24.5t-24.5 59.5zM408 1651q0 34 25 59t59 25t58.5 -25t24.5 -59q0 -35 -24.5 -59.5t-58.5 -24.5t-59 24.5 t-25 59.5z" />
<glyph unicode="&#xf0;" horiz-adv-x="708" />
<glyph unicode="&#xf1;" horiz-adv-x="1419" d="M0 0v1464h123l917 -1173v1173h154v-1464h-123l-917 1174v-1174h-154zM379 1624l8 14q41 68 107 68q30 0 90 -25q49 -24 65 -24q23 0 41 33l25 34l49 -75l-10 -17q-44 -65 -105 -65q-34 0 -84 26q-44 23 -76 23q-21 0 -36 -29l-25 -41z" />
<glyph unicode="&#xf2;" horiz-adv-x="1650" d="M0 735q0 197 97.5 364.5t265 265t364.5 97.5q196 0 363 -97.5t264.5 -265t97.5 -364.5t-97.5 -364.5t-264.5 -265t-363 -97.5q-197 0 -364.5 97.5t-265 265t-97.5 364.5zM152 735q0 -117 45.5 -223.5t122.5 -184t183.5 -123.5t223.5 -46q156 0 288.5 77.5t210 210.5 t77.5 289t-77.5 288.5t-210 210t-288.5 77.5t-288.5 -77.5t-209.5 -210t-77 -288.5zM471 1741h139l174 -174h-114z" />
<glyph unicode="&#xf3;" horiz-adv-x="1650" d="M0 735q0 197 97.5 364.5t265 265t364.5 97.5q196 0 363 -97.5t264.5 -265t97.5 -364.5t-97.5 -364.5t-264.5 -265t-363 -97.5q-197 0 -364.5 97.5t-265 265t-97.5 364.5zM152 735q0 -117 45.5 -223.5t122.5 -184t183.5 -123.5t223.5 -46q156 0 288.5 77.5t210 210.5 t77.5 289t-77.5 288.5t-210 210t-288.5 77.5t-288.5 -77.5t-209.5 -210t-77 -288.5zM659 1567l177 176h141l-203 -176h-115z" />
<glyph unicode="&#xf4;" horiz-adv-x="1650" d="M0 735q0 197 97.5 364.5t265 265t364.5 97.5q196 0 363 -97.5t264.5 -265t97.5 -364.5t-97.5 -364.5t-264.5 -265t-363 -97.5q-197 0 -364.5 97.5t-265 265t-97.5 364.5zM152 735q0 -117 45.5 -223.5t122.5 -184t183.5 -123.5t223.5 -46q156 0 288.5 77.5t210 210.5 t77.5 289t-77.5 288.5t-210 210t-288.5 77.5t-288.5 -77.5t-209.5 -210t-77 -288.5zM510 1567l176 174h68l174 -174h-115l-94 82l-94 -82h-115z" />
<glyph unicode="&#xf5;" horiz-adv-x="1650" d="M0 735q0 197 97.5 364.5t265 265t364.5 97.5q196 0 363 -97.5t264.5 -265t97.5 -364.5t-97.5 -364.5t-264.5 -265t-363 -97.5q-197 0 -364.5 97.5t-265 265t-97.5 364.5zM152 735q0 -117 45.5 -223.5t122.5 -184t183.5 -123.5t223.5 -46q156 0 288.5 77.5t210 210.5 t77.5 289t-77.5 288.5t-210 210t-288.5 77.5t-288.5 -77.5t-209.5 -210t-77 -288.5zM543 1624l8 14q41 68 106 68q31 0 91 -25q49 -24 65 -24q23 0 41 33l25 34l49 -75l-10 -17q-44 -65 -105 -65q-34 0 -84 26q-44 23 -76 23q-22 0 -37 -29l-24 -41z" />
<glyph unicode="&#xf6;" horiz-adv-x="1650" d="M0 735q0 197 97.5 364.5t265 265t364.5 97.5q196 0 363 -97.5t264.5 -265t97.5 -364.5t-97.5 -364.5t-264.5 -265t-363 -97.5q-197 0 -364.5 97.5t-265 265t-97.5 364.5zM152 735q0 -117 45.5 -223.5t122.5 -184t183.5 -123.5t223.5 -46q156 0 288.5 77.5t210 210.5 t77.5 289t-77.5 288.5t-210 210t-288.5 77.5t-288.5 -77.5t-209.5 -210t-77 -288.5zM492 1651q0 34 24 59t59 25q34 0 59 -25t25 -59q0 -35 -25 -59.5t-59 -24.5q-35 0 -59 24.5t-24 59.5zM793 1651q0 34 25 59t59 25t59 -25t25 -59q0 -35 -25 -59.5t-59 -24.5t-59 24.5 t-25 59.5z" />
<glyph unicode="&#xf7;" horiz-adv-x="708" />
<glyph unicode="&#xf8;" horiz-adv-x="708" />
<glyph unicode="&#xf9;" horiz-adv-x="1382" d="M0 518v57v889h154v-895q0 -113 57.5 -209.5t155 -152t211.5 -55.5q173 0 298 122t125 293v8v889h152v-889q0 -117 -45.5 -223.5t-122.5 -183.5t-183.5 -122.5t-223.5 -45.5q-223 0 -388 149.5t-188 368.5h-2zM346 1741h139l174 -174h-114z" />
<glyph unicode="&#xfa;" horiz-adv-x="1382" d="M0 518v57v889h154v-895q0 -113 57.5 -209.5t155 -152t211.5 -55.5q173 0 298 122t125 293v8v889h152v-889q0 -117 -45.5 -223.5t-122.5 -183.5t-183.5 -122.5t-223.5 -45.5q-223 0 -388 149.5t-188 368.5h-2zM502 1567l176 176h141l-203 -176h-114z" />
<glyph unicode="&#xfb;" horiz-adv-x="1382" d="M0 518v57v889h154v-895q0 -113 57.5 -209.5t155 -152t211.5 -55.5q173 0 298 122t125 293v8v889h152v-889q0 -117 -45.5 -223.5t-122.5 -183.5t-183.5 -122.5t-223.5 -45.5q-223 0 -388 149.5t-188 368.5h-2zM369 1567l176 174h67l174 -174h-114l-94 82l-95 -82h-114z " />
<glyph unicode="&#xfc;" horiz-adv-x="1382" d="M0 518v57v889h154v-895q0 -113 57.5 -209.5t155 -152t211.5 -55.5q173 0 298 122t125 293v8v889h152v-889q0 -117 -45.5 -223.5t-122.5 -183.5t-183.5 -122.5t-223.5 -45.5q-223 0 -388 149.5t-188 368.5h-2zM334 1651q0 34 24.5 59t59.5 25q34 0 59 -25t25 -59 q0 -35 -25 -59.5t-59 -24.5q-35 0 -59.5 24.5t-24.5 59.5zM635 1651q0 34 25 59t59 25t59 -25t25 -59q0 -35 -25 -59.5t-59 -24.5t-59 24.5t-25 59.5z" />
<glyph unicode="&#x2c6;" horiz-adv-x="641" d="M0 1290l174 174h68l176 -174h-115l-94 82l-94 -82h-115z" />
<glyph unicode="&#x2000;" horiz-adv-x="871" />
<glyph unicode="&#x2001;" horiz-adv-x="1743" />
<glyph unicode="&#x2002;" horiz-adv-x="871" />
<glyph unicode="&#x2003;" horiz-adv-x="1743" />
<glyph unicode="&#x2004;" horiz-adv-x="581" />
<glyph unicode="&#x2005;" horiz-adv-x="435" />
<glyph unicode="&#x2006;" horiz-adv-x="290" />
<glyph unicode="&#x2007;" horiz-adv-x="290" />
<glyph unicode="&#x2008;" horiz-adv-x="217" />
<glyph unicode="&#x2009;" horiz-adv-x="348" />
<glyph unicode="&#x200a;" horiz-adv-x="96" />
<glyph unicode="&#x2010;" horiz-adv-x="823" d="M0 629v166h565v-166h-565z" />
<glyph unicode="&#x2011;" horiz-adv-x="823" d="M0 629v166h565v-166h-565z" />
<glyph unicode="&#x2012;" horiz-adv-x="823" d="M0 629v166h565v-166h-565z" />
<glyph unicode="&#x2013;" horiz-adv-x="1064" d="M0 629v166h809v-166h-809z" />
<glyph unicode="&#x2014;" horiz-adv-x="1064" d="M0 629v166h809v-166h-809z" />
<glyph unicode="&#x2018;" horiz-adv-x="434" d="M0 1143l111 321h98l-74 -321h-135z" />
<glyph unicode="&#x2019;" horiz-adv-x="430" d="M0 1143l76 321h133l-111 -321h-98z" />
<glyph unicode="&#x201c;" horiz-adv-x="647" d="M0 1143l111 321h98l-74 -321h-135zM215 1143l111 321h98l-76 -321h-133z" />
<glyph unicode="&#x201d;" horiz-adv-x="636" d="M0 1143l76 321h133l-111 -321h-98zM207 1143l76 321h133l-111 -321h-98z" />
<glyph unicode="&#x202f;" horiz-adv-x="348" />
<glyph unicode="&#x205f;" horiz-adv-x="435" />
<glyph unicode="&#x25fc;" horiz-adv-x="1464" d="M0 0v1464h1464v-1464h-1464z" />
</font>
</defs>
</svg>
